<svg xmlns="http://www.w3.org/2000/svg" width="100" height="100" viewBox="0 0 100 100">
  <path fill="#7B959F" d="M55,0 L54.9998448,13.6638613 C57.6425755,13.905451 60.2470174,14.4141702 62.8126598,15.1899393 C66.5432764,16.3179597 69.7768169,17.8760292 72.5110525,19.8653502 L72.5110525,19.8653502 L72.8504049,20.1122495 L70.0109652,25.9201329 L69.532448,25.5878079 C66.7596726,23.6621451 63.7995095,22.21871 60.6504272,21.2564283 C57.4978252,20.293071 54.411935,19.811963 51.3915547,19.811963 C45.6097821,19.811963 41.2872993,20.9793963 38.3652054,23.3256009 C34.8183522,25.5470162 32.1372361,29.7337541 32.1372361,33.2134831 C32.1372361,36.3436288 33.7168506,38.815166 36.3727654,40.6896448 C37.2757197,41.3269277 38.072758,41.7876134 38.9299682,42.1814811 C39.3662614,42.3819474 39.8208898,42.5673099 40.394034,42.782263 L40.394034,42.782263 L42.7729515,43.6503075 C44.9237486,44.4256147 47.6890437,45.2632836 51.0673384,46.1624691 L51.0673384,46.1624691 L53.6107897,46.8327568 C57.9517114,47.9993953 61.5132154,49.1532929 64.2973173,50.2958646 C67.411634,51.5739537 70.0533633,53.5103787 72.2167817,56.1008457 C74.4093751,58.7262467 75.5,62.2609075 75.5,66.6853933 C75.5,70.350914 74.5626307,73.6952769 72.6894881,76.7078352 C70.8112732,79.7285512 67.9353571,82.1182187 64.0747921,83.8763822 C61.4516456,85.0710054 58.4268452,85.8567001 55.0009876,86.23544 L55,100 L45,100 L44.9994023,86.2187832 C41.716535,85.8407228 38.5270441,85.0814774 35.4317504,83.9410804 C30.7857269,82.2293491 27.1825635,79.9616479 24.6288582,77.1327957 L24.6288582,77.1327957 L24.3823946,76.8597771 L27.6899078,71.2679805 L28.1457848,71.7483417 C30.5237681,74.2540414 33.6930851,76.2875202 37.6589115,77.8462873 C41.6315135,79.4077175 45.7281527,80.188037 49.9520154,80.188037 C55.8649648,80.188037 60.2710075,79.0520617 63.2320506,76.7672081 C66.9374608,74.6091766 69.4942418,70.9345628 69.4942418,67.0898876 C69.4942418,63.4925773 68.5609074,61.7311465 66.2134033,59.6282032 C64.6852102,58.2592157 62.1431882,56.8955899 59.3695176,55.8292217 C57.2366719,55.0092258 54.3339624,54.1171873 50.6604215,53.1536803 L50.6604215,53.1536803 L49.5352334,52.8624848 C44.4612464,51.5089405 40.4106928,50.2047987 37.3804209,48.9479712 L37.3804209,48.9479712 L35.3394209,48.1103991 C32.4969658,46.9133718 30.9582984,45.9396015 29.4629637,44.1523017 C27.2381504,41.4930919 26.1314779,37.9077404 26.1314779,33.4157303 C26.1314779,29.7516534 27.0520555,26.4085492 28.8919313,23.3966534 C30.7368011,20.3765822 33.5631696,17.9698079 37.3584259,16.1771118 C39.5931409,15.1215401 42.1401745,14.3789225 44.9990999,13.947842 L45,0 L55,0 Z"/>
</svg>
