<svg xmlns="http://www.w3.org/2000/svg" width="100" height="100" viewBox="0 0 100 100">
  <path fill="#7B959F" d="M46,0 C50.9172438,0 64.8566376,4 87.8181818,12 C90.1277362,12 92,13.790861 92,16 L92,96 C92,98.209139 90.1277362,100 87.8181818,100 L4.18181818,100 C1.87226377,100 0,98.209139 0,96 L0,16 C0,13.790861 1.87226377,12 4.18181818,12 C27.1433624,4 41.0827562,0 46,0 Z M45.995,6.89 L6.86,17.9243666 L6.86,92.7913232 L32.5,92.791 L32.5,76 C32.5,73.5857267 34.4012365,71.6155109 36.7881643,71.504898 L37,71.5 L53,71.5 C55.4852814,71.5 57.5,73.5147186 57.5,76 L57.5,76 L57.5,92.791 L85.13,92.7913232 L85.13,17.9243666 L45.995,6.89 Z M52.5,76.5 L37.5,76.5 L37.5,92.791 L52.5,92.791 L52.5,76.5 Z M45,24.5 C51.959535,24.5 57.5,30.5945115 57.5,38 C57.5,45.4054885 51.959535,51.5 45,51.5 C38.040465,51.5 32.5,45.4054885 32.5,38 C32.5,30.5945115 38.040465,24.5 45,24.5 Z M45,29.5 C40.91384,29.5 37.5,33.255224 37.5,38 C37.5,42.744776 40.91384,46.5 45,46.5 C49.08616,46.5 52.5,42.744776 52.5,38 C52.5,33.255224 49.08616,29.5 45,29.5 Z" transform="translate(4)"/>
</svg>
