<svg xmlns="http://www.w3.org/2000/svg" width="100" height="100" viewBox="0 0 100 100">
  <path fill="#7B959F" d="M50,16.5 C77.3488044,16.5 99.5,39.480267 99.5,67.8019062 C99.5,71.7844879 99.0623646,75.719588 98.1961687,79.5512471 L98.1961687,79.5512471 L97.755628,81.5 L2.2443718,81.5 L1.80383119,79.551247 C0.937635386,75.7195875 0.5,71.7844874 0.5,67.8019062 C0.5,39.480267 22.6511956,16.5 50,16.5 Z M50,21.5 C25.4545624,21.5 5.5,42.2014187 5.5,67.8019062 C5.5,70.5806235 5.73462152,73.3315197 6.19987562,76.0322472 L6.19987562,76.0322472 L6.285,76.5 L44.1889599,76.4997425 C44.065606,76.0203901 44,75.5178566 44,75 C44,72.7791367 45.2066136,70.840093 47.0000394,69.8026704 L47,50 C47,48.3431458 48.3431458,47 50,47 C51.6568542,47 53,48.3431458 53,50 L53.000963,69.8032504 C54.793836,70.8408156 56,72.7795505 56,75 C56,75.5182152 55.9343031,76.0210861 55.8107837,76.5007383 L93.716,76.5 L93.8001244,76.0322473 C94.2188531,73.6015928 94.4507694,71.1303014 94.4929653,68.6346645 L94.4929653,68.6346645 L94.5,67.8019062 C94.5,42.2014187 74.5454376,21.5 50,21.5 Z M19,55 C21.7614237,55 24,57.2385763 24,60 C24,62.7614237 21.7614237,65 19,65 C16.2385763,65 14,62.7614237 14,60 C14,57.2385763 16.2385763,55 19,55 Z M82,56.2213571 C84.209139,56.2213571 86,58.1337336 86,60.4927697 C86,62.8518059 84.209139,64.7641823 82,64.7641823 C79.790861,64.7641823 78,62.8518059 78,60.4927697 C78,58.1337336 79.790861,56.2213571 82,56.2213571 Z M28,37 C30.7614237,37 33,39.2385763 33,42 C33,44.7614237 30.7614237,47 28,47 C25.2385763,47 23,44.7614237 23,42 C23,39.2385763 25.2385763,37 28,37 Z M72,37 C74.209139,37 76,38.9123766 76,41.2714127 C76,43.6304488 74.209139,45.5428254 72,45.5428254 C69.790861,45.5428254 68,43.6304488 68,41.2714127 C68,38.9123766 69.790861,37 72,37 Z M50,28 C52.7614237,28 55,30.2385763 55,33 C55,35.7614237 52.7614237,38 50,38 C47.2385763,38 45,35.7614237 45,33 C45,30.2385763 47.2385763,28 50,28 Z"/>
</svg>
